Coordinates
version=1
nRows=14
nColumns=40
inDegrees=yes

Units are S.I. units (second, meters, Newtons, ...)
If the header above contains a line with 'inDegrees', this indicates whether rotational values are in degrees (yes) or radians (no).

endheader
time	pelvis_tilt	pelvis_list	pelvis_rotation	pelvis_tx	pelvis_ty	pelvis_tz	hip_flexion_r	hip_adduction_r	hip_rotation_r	knee_angle_r	knee_angle_r_beta	ankle_angle_r	subtalar_angle_r	mtp_angle_r	hip_flexion_l	hip_adduction_l	hip_rotation_l	knee_angle_l	knee_angle_l_beta	ankle_angle_l	subtalar_angle_l	mtp_angle_l	lumbar_extension	lumbar_bending	lumbar_rotation	arm_flex_r	arm_add_r	arm_rot_r	elbow_flex_r	pro_sup_r	wrist_flex_r	wrist_dev_r	arm_flex_l	arm_add_l	arm_rot_l	elbow_flex_l	pro_sup_l	wrist_flex_l	wrist_dev_l
      1.57000000	     -3.17597131	     -2.77194065	     -0.43757653	      0.91383532	      1.05485412	     -0.48721140	      2.95061374	      3.39758021	     -3.87616215	     12.43362697	      0.21700773	      8.64752308	      0.00000000	      0.00000000	     34.10957817	    -11.05812991	    -13.08027781	     51.87977847	      0.90547295	     -0.70839661	      0.00000000	      0.00000000	     -7.88056365	      3.43373382	     10.57430699	     -7.78397902	     -8.39345551	    -20.67926019	     73.17530747	     70.29984583	      0.00000000	      0.00000000	    -10.49297442	     -2.42612878	      0.29265486	     31.97015591	     67.01303887	      0.00000000	      0.00000000
      1.58000000	     -2.83879993	     -2.69532405	     -0.78102568	      0.91307993	      1.05471300	     -0.48683162	      1.50053714	      3.37430422	     -3.37742332	     11.77468242	      0.20550698	      8.88169769	      0.00000000	      0.00000000	     33.57126424	    -11.04819850	    -14.46716041	     48.41331300	      0.84497171	     -0.87769985	      0.00000000	      0.00000000	     -8.40324990	      3.29864234	     11.06948358	     -7.38612364	     -8.58130475	    -20.80907701	     74.99594596	     70.70029549	      0.00000000	      0.00000000	    -10.84063770	     -2.47793361	      0.70250078	     32.02226660	     67.43296963	      0.00000000	      0.00000000
      1.59000000	     -3.14912866	     -2.81153168	     -0.87444804	      0.91213678	      1.05335566	     -0.48703701	      0.90852918	      3.50146047	     -3.31148319	     11.41520846	      0.19923297	      9.07673860	      0.00000000	      0.00000000	     33.90956876	    -10.87159138	    -15.09521120	     44.96044814	      0.78470785	     -1.26638626	      0.00000000	      0.00000000	     -8.10841546	      3.42891812	     11.21425993	     -7.10931446	     -8.93137293	    -20.50245133	     76.73228002	     70.85741660	      0.00000000	      0.00000000	    -11.32100052	     -2.42863884	      0.72544490	     32.05359001	     67.54433236	      0.00000000	      0.00000000
      1.60000000	     -2.86557991	     -2.64457147	     -1.03924442	      0.91147560	      1.05279110	     -0.48722695	     -0.51434992	      3.30791058	     -3.06801681	     10.73045045	      0.18728169	      9.38702951	      0.00000000	      0.00000000	     33.24645581	    -10.45850162	    -16.35400012	     41.06950755	      0.71679813	     -1.88288781	      0.00000000	      0.00000000	     -8.55730212	      3.21858364	     11.41919494	     -6.65762576	     -9.09524662	    -20.55941816	     78.44764709	     71.31623415	      0.00000000	      0.00000000	    -11.64799663	     -2.42404291	      0.79311277	     32.07584161	     67.95922157	      0.00000000	      0.00000000
      1.61000000	     -3.22855439	     -2.72639637	     -1.08675852	      0.91055349	      1.05104281	     -0.48761213	     -1.07804610	      3.37653024	     -2.95809267	     10.33050155	      0.18030127	      9.60244811	      0.00000000	      0.00000000	     33.47411372	    -10.02228694	    -16.75199764	     37.27904635	      0.65064210	     -2.62086450	      0.00000000	      0.00000000	     -8.22306481	      3.32940629	     11.45403030	     -6.34664496	     -9.38456199	    -20.26495754	     80.10621025	     71.51667759	      0.00000000	      0.00000000	    -12.10384576	     -2.36448321	      0.72369119	     32.12664523	     68.08301130	      0.00000000	      0.00000000
      1.62000000	     -3.11921083	     -2.55193589	     -1.20818600	      0.90994867	      1.05001495	     -0.48777972	     -2.29597043	      3.17469123	     -2.71433606	      9.68808119	      0.16908891	      9.84897037	      0.00000000	      0.00000000	     32.84913390	     -9.30051065	    -17.47395075	     33.06296139	      0.57705754	     -3.47982152	      0.00000000	      0.00000000	     -8.43064692	      3.08074899	     11.51363829	     -5.85683023	     -9.50770541	    -20.20505760	     81.42841004	     72.00917780	      0.00000000	      0.00000000	    -12.42725188	     -2.34723622	      0.60280721	     32.14045072	     68.40455789	      0.00000000	      0.00000000
      1.63000000	     -3.60655399	     -2.74266322	     -1.33316945	      0.90906352	      1.04784800	     -0.48809294	     -2.69751234	      3.36913318	     -2.38711870	      9.34717256	      0.16313894	     10.03051773	      0.00000000	      0.00000000	     33.08582629	     -8.76212401	    -17.03780899	     29.15821044	      0.50890678	     -3.97084340	      0.00000000	      0.00000000	     -7.93414105	      3.30616783	     11.62247136	     -5.57444292	     -9.81928550	    -19.88597132	     82.79366349	     72.17452567	      0.00000000	      0.00000000	    -12.83465694	     -2.24230299	      0.47753221	     32.19265623	     68.46115266	      0.00000000	      0.00000000
      1.64000000	     -3.65146705	     -2.61473137	     -1.29421960	      0.90853304	      1.04633176	     -0.48873370	     -3.74628797	      3.20348698	     -2.26607531	      8.72696623	      0.15231429	     10.22898893	      0.00000000	      0.00000000	     32.53255053	     -7.70760418	    -16.33483058	     24.79057102	      0.43267709	     -4.55943903	      0.00000000	      0.00000000	     -7.92958628	      3.15631860	     11.45709847	     -5.06889944	     -9.90581185	    -19.83137243	     83.80288205	     72.59197072	      0.00000000	      0.00000000	    -13.09789159	     -2.16934527	      0.28765393	     31.99719000	     68.65224001	      0.00000000	      0.00000000
      1.65000000	     -4.22286581	     -2.83942032	     -1.34520549	      0.90777818	      1.04375149	     -0.48954580	     -4.01811474	      3.39579519	     -1.90670379	      8.47501209	      0.14791687	     10.48044359	      0.00000000	      0.00000000	     32.68892862	     -7.02551994	    -14.50762047	     20.83935125	      0.36371529	     -4.36517107	      0.00000000	      0.00000000	     -7.31248505	      3.46024782	     11.47167357	     -4.83749841	    -10.22734040	    -19.51600011	     84.98374486	     72.68685834	      0.00000000	      0.00000000	    -13.44344342	     -2.02012633	      0.15644331	     31.97197263	     68.64224833	      0.00000000	      0.00000000
      1.66000000	     -4.66426407	     -2.94221872	     -1.23328408	      0.90722545	      1.04128904	     -0.49055784	     -4.42610431	      3.45389732	     -1.81482957	      8.25627932	      0.14409926	     10.77097661	      0.00000000	      0.00000000	     32.50229868	     -6.17832828	    -12.09391381	     16.69215475	      0.29133306	     -4.30373055	      0.00000000	      0.00000000	     -6.81528077	      3.60943511	     11.28863477	     -4.55731145	    -10.41615867	    -19.34733852	     85.92300547	     72.77744221	      0.00000000	      0.00000000	    -13.70178996	     -1.90945678	      0.04911240	     31.78276535	     68.63363881	      0.00000000	      0.00000000
      1.67000000	     -4.73081526	     -2.92187660	     -1.02168308	      0.90690958	      1.03930651	     -0.49152296	     -5.21850063	      3.38629535	     -2.07051649	      8.10282214	      0.14142093	     10.94626861	      0.00000000	      0.00000000	     31.68148328	     -5.30239529	     -9.44493696	     12.40077613	      0.21643437	     -4.79731966	      0.00000000	      0.00000000	     -6.74177155	      3.59743918	     10.92174846	     -4.06506606	    -10.44038085	    -19.32183331	     86.63592972	     73.05965163	      0.00000000	      0.00000000	    -13.83870706	     -1.86419548	      0.00540501	     31.46026549	     68.75236531	      0.00000000	      0.00000000
      1.68000000	     -4.97977714	     -2.99650364	     -1.01977653	      0.90673263	      1.03689889	     -0.49223748	     -5.64853581	      3.40463853	     -2.02778431	      8.25022748	      0.14399363	     11.23470811	      0.00000000	      0.00000000	     31.14451055	     -4.85134282	     -6.79785714	      8.75146945	      0.15274196	     -4.85231361	      0.00000000	      0.00000000	     -6.45056607	      3.67632721	     10.81880539	     -3.77879018	    -10.52405264	    -19.17271044	     87.34258022	     73.26610477	      0.00000000	      0.00000000	    -14.02354590	     -1.79333163	     -0.01289485	     31.25605950	     68.83749411	      0.00000000	      0.00000000
      1.69000000	     -5.11439545	     -3.02021123	     -1.09917637	      0.90678901	      1.03464314	     -0.49291711	     -6.11566023	      3.33685105	     -2.07337998	      8.59184770	      0.14995603	     11.51670151	      0.00000000	      0.00000000	     30.56381814	     -4.57583265	     -4.48912623	      5.72912873	      0.09999216	     -4.96280853	      0.00000000	      0.00000000	     -6.28168779	      3.68832641	     10.82490812	     -3.52015143	    -10.61700183	    -19.05497148	     87.91054331	     73.48370511	      0.00000000	      0.00000000	    -14.12406311	     -1.72355658	     -0.01499775	     30.99391015	     68.95882087	      0.00000000	      0.00000000
      1.70000000	     -5.17523260	     -3.01397317	     -1.20690420	      0.90703092	      1.03246945	     -0.49353284	     -6.58905951	      3.23342434	     -2.07982744	      9.06434180	      0.15820261	     11.78333190	      0.00000000	      0.00000000	     30.22188329	     -4.43846133	     -3.03776216	      3.81262585	      0.06654287	     -4.77492715	      0.00000000	      0.00000000	     -6.16899336	      3.64964770	     10.89498873	     -3.32470214	    -10.67054192	    -18.91419988	     88.34345380	     73.63498416	      0.00000000	      0.00000000	    -14.13219704	     -1.70722254	     -0.04039580	     30.71312245	     69.05660776	      0.00000000	      0.00000000
